<mxfile host="app.diagrams.net" modified="2022-01-07T14:42:58.797Z" agent="5.0 (Windows NT 10.0; Win64; x64) AppleWebKit/537.36 (KHTML, like Gecko) Chrome/96.0.4664.110 Safari/537.36" etag="xGrBbnOhgbtUMiMHb3Q1" version="16.2.2" type="github" pages="2">
  <diagram id="E948EfgCOJVRb2plcjeF" name="Page-1">
    <mxGraphModel dx="1695" dy="454" grid="1" gridSize="10" guides="1" tooltips="1" connect="1" arrows="1" fold="1" page="1" pageScale="1" pageWidth="827" pageHeight="1169" math="0" shadow="0">
      <root>
        <mxCell id="0" />
        <mxCell id="1" parent="0" />
        <mxCell id="jdlnI0Il5XYoSt5V_vpM-1" value="F11: Détecter les pièges" style="rounded=0;whiteSpace=wrap;html=1;" parent="1" vertex="1">
          <mxGeometry x="90" y="210" width="120" height="60" as="geometry" />
        </mxCell>
        <mxCell id="jdlnI0Il5XYoSt5V_vpM-2" value="F12: Se déplacer" style="rounded=0;whiteSpace=wrap;html=1;" parent="1" vertex="1">
          <mxGeometry x="90" y="310" width="120" height="60" as="geometry" />
        </mxCell>
        <mxCell id="jdlnI0Il5XYoSt5V_vpM-3" value="F14: Désamorcer les pièges" style="rounded=0;whiteSpace=wrap;html=1;" parent="1" vertex="1">
          <mxGeometry x="90" y="500" width="120" height="60" as="geometry" />
        </mxCell>
        <mxCell id="jdlnI0Il5XYoSt5V_vpM-4" value="F15: Envoyer les CR au drone ou au VAB" style="rounded=0;whiteSpace=wrap;html=1;" parent="1" vertex="1">
          <mxGeometry x="90" y="600" width="120" height="60" as="geometry" />
        </mxCell>
        <mxCell id="jdlnI0Il5XYoSt5V_vpM-13" style="edgeStyle=orthogonalEdgeStyle;rounded=0;orthogonalLoop=1;jettySize=auto;html=1;entryX=0;entryY=0.5;entryDx=0;entryDy=0;" parent="1" source="jdlnI0Il5XYoSt5V_vpM-12" target="jdlnI0Il5XYoSt5V_vpM-1" edge="1">
          <mxGeometry relative="1" as="geometry" />
        </mxCell>
        <mxCell id="jdlnI0Il5XYoSt5V_vpM-14" style="edgeStyle=orthogonalEdgeStyle;rounded=0;orthogonalLoop=1;jettySize=auto;html=1;exitX=1;exitY=0.5;exitDx=0;exitDy=0;entryX=0;entryY=0.5;entryDx=0;entryDy=0;" parent="1" source="jdlnI0Il5XYoSt5V_vpM-12" target="jdlnI0Il5XYoSt5V_vpM-2" edge="1">
          <mxGeometry relative="1" as="geometry" />
        </mxCell>
        <mxCell id="jdlnI0Il5XYoSt5V_vpM-15" style="edgeStyle=orthogonalEdgeStyle;rounded=0;orthogonalLoop=1;jettySize=auto;html=1;exitX=1;exitY=0.5;exitDx=0;exitDy=0;entryX=0;entryY=0.5;entryDx=0;entryDy=0;" parent="1" source="jdlnI0Il5XYoSt5V_vpM-12" target="jdlnI0Il5XYoSt5V_vpM-3" edge="1">
          <mxGeometry relative="1" as="geometry" />
        </mxCell>
        <mxCell id="jdlnI0Il5XYoSt5V_vpM-16" style="edgeStyle=orthogonalEdgeStyle;rounded=0;orthogonalLoop=1;jettySize=auto;html=1;entryX=0.002;entryY=0.617;entryDx=0;entryDy=0;entryPerimeter=0;" parent="1" source="jdlnI0Il5XYoSt5V_vpM-12" target="jdlnI0Il5XYoSt5V_vpM-4" edge="1">
          <mxGeometry relative="1" as="geometry" />
        </mxCell>
        <mxCell id="jdlnI0Il5XYoSt5V_vpM-62" style="edgeStyle=orthogonalEdgeStyle;rounded=0;orthogonalLoop=1;jettySize=auto;html=1;exitX=1;exitY=0.5;exitDx=0;exitDy=0;entryX=0;entryY=0.5;entryDx=0;entryDy=0;fontColor=#000000;" parent="1" source="jdlnI0Il5XYoSt5V_vpM-12" target="jdlnI0Il5XYoSt5V_vpM-61" edge="1">
          <mxGeometry relative="1" as="geometry" />
        </mxCell>
        <mxCell id="jdlnI0Il5XYoSt5V_vpM-12" value="F10:Husky" style="rounded=0;whiteSpace=wrap;html=1;" parent="1" vertex="1">
          <mxGeometry x="-90" y="400" width="80" height="60" as="geometry" />
        </mxCell>
        <mxCell id="jdlnI0Il5XYoSt5V_vpM-61" value="&lt;font color=&quot;#000000&quot;&gt;F13: lire les QR Code&lt;/font&gt;" style="rounded=0;whiteSpace=wrap;html=1;labelBackgroundColor=none;fontColor=#0000FF;strokeColor=#000000;fillColor=default;" parent="1" vertex="1">
          <mxGeometry x="90" y="400" width="120" height="60" as="geometry" />
        </mxCell>
      </root>
    </mxGraphModel>
  </diagram>
  <diagram id="lp-3FWoehNaO1ZD1mjEL" name="Page-1">
    <mxGraphModel>
      <root>
        <mxCell id="0" />
        <mxCell id="1" parent="0" />
      </root>
    </mxGraphModel>
  </diagram>
</mxfile>
